<svg width="25" height="25" viewBox="0 0 25 25" fill="none" xmlns="http://www.w3.org/2000/svg">
<path fill-rule="evenodd" clip-rule="evenodd" d="M21.5909 2.5H3.40909C3.10771 2.5 2.81867 2.6317 2.60556 2.86612C2.39245 3.10054 2.27273 3.41848 2.27273 3.75V21.25C2.27273 21.5815 2.39245 21.8995 2.60556 22.1339C2.81867 22.3683 3.10771 22.5 3.40909 22.5H21.5909C21.8923 22.5 22.1813 22.3683 22.3944 22.1339C22.6075 21.8995 22.7273 21.5815 22.7273 21.25V3.75C22.7273 3.41848 22.6075 3.10054 22.3944 2.86612C22.1813 2.6317 21.8923 2.5 21.5909 2.5ZM3.40909 0C2.50494 0 1.63783 0.395088 0.9985 1.09835C0.359171 1.80161 0 2.75544 0 3.75V21.25C0 22.2446 0.359171 23.1984 0.9985 23.9017C1.63783 24.6049 2.50494 25 3.40909 25H21.5909C22.4951 25 23.3622 24.6049 24.0015 23.9017C24.6408 23.1984 25 22.2446 25 21.25V3.75C25 2.75544 24.6408 1.80161 24.0015 1.09835C23.3622 0.395088 22.4951 0 21.5909 0H3.40909ZM5.68182 6.25H7.95455V8.75H5.68182V6.25ZM11.3636 6.25C11.0623 6.25 10.7732 6.3817 10.5601 6.61612C10.347 6.85054 10.2273 7.16848 10.2273 7.5C10.2273 7.83152 10.347 8.14946 10.5601 8.38388C10.7732 8.6183 11.0623 8.75 11.3636 8.75H18.1818C18.4832 8.75 18.7722 8.6183 18.9853 8.38388C19.1985 8.14946 19.3182 7.83152 19.3182 7.5C19.3182 7.16848 19.1985 6.85054 18.9853 6.61612C18.7722 6.3817 18.4832 6.25 18.1818 6.25H11.3636ZM7.95455 11.25H5.68182V13.75H7.95455V11.25ZM10.2273 12.5C10.2273 12.1685 10.347 11.8505 10.5601 11.6161C10.7732 11.3817 11.0623 11.25 11.3636 11.25H18.1818C18.4832 11.25 18.7722 11.3817 18.9853 11.6161C19.1985 11.8505 19.3182 12.1685 19.3182 12.5C19.3182 12.8315 19.1985 13.1495 18.9853 13.3839C18.7722 13.6183 18.4832 13.75 18.1818 13.75H11.3636C11.0623 13.75 10.7732 13.6183 10.5601 13.3839C10.347 13.1495 10.2273 12.8315 10.2273 12.5ZM7.95455 16.25H5.68182V18.75H7.95455V16.25ZM10.2273 17.5C10.2273 17.1685 10.347 16.8505 10.5601 16.6161C10.7732 16.3817 11.0623 16.25 11.3636 16.25H18.1818C18.4832 16.25 18.7722 16.3817 18.9853 16.6161C19.1985 16.8505 19.3182 17.1685 19.3182 17.5C19.3182 17.8315 19.1985 18.1495 18.9853 18.3839C18.7722 18.6183 18.4832 18.75 18.1818 18.75H11.3636C11.0623 18.75 10.7732 18.6183 10.5601 18.3839C10.347 18.1495 10.2273 17.8315 10.2273 17.5Z" fill="#5E5E5E"/>
</svg>
